<svg width="51" height="51" viewBox="0 0 51 51" fill="none" xmlns="http://www.w3.org/2000/svg">
<path d="M46.2188 39.8438H43.0312V36.6562H44.625V30.2812H38.25V31.875H35.0625V28.6875C35.0625 28.2648 35.2304 27.8594 35.5293 27.5605C35.8282 27.2617 36.2336 27.0938 36.6562 27.0938H46.2188C46.6414 27.0938 47.0468 27.2617 47.3457 27.5605C47.6446 27.8594 47.8125 28.2648 47.8125 28.6875V38.25C47.8125 38.6727 47.6446 39.0781 47.3457 39.377C47.0468 39.6758 46.6414 39.8438 46.2188 39.8438Z" fill="white"/>
<path d="M38.25 47.8125H28.6875C28.2648 47.8125 27.8594 47.6446 27.5605 47.3457C27.2617 47.0468 27.0937 46.6414 27.0937 46.2187V36.6562C27.0937 36.2336 27.2617 35.8282 27.5605 35.5293C27.8594 35.2304 28.2648 35.0625 28.6875 35.0625H38.25C38.6727 35.0625 39.0781 35.2304 39.3769 35.5293C39.6758 35.8282 39.8437 36.2336 39.8437 36.6562V46.2187C39.8437 46.6414 39.6758 47.0468 39.3769 47.3457C39.0781 47.6446 38.6727 47.8125 38.25 47.8125ZM30.2812 44.625H36.6562V38.25H30.2812V44.625ZM23.9062 31.6487C22.7547 31.3486 21.7103 30.7316 20.8918 29.8677C20.0732 29.0039 19.5133 27.9279 19.2756 26.7618C19.0379 25.5958 19.1318 24.3864 19.5469 23.2711C19.9619 22.1558 20.6814 21.1792 21.6236 20.4522C22.5657 19.7252 23.6929 19.277 24.877 19.1584C26.0611 19.0398 27.2548 19.2556 28.3224 19.7813C29.39 20.307 30.2889 21.1215 30.9168 22.1324C31.5448 23.1433 31.8768 24.3099 31.875 25.5H35.0625C35.0643 23.6764 34.5447 21.8904 33.5649 20.3524C32.5851 18.8144 31.186 17.5886 29.5325 16.8197C27.879 16.0507 26.0401 15.7705 24.2327 16.0122C22.4252 16.2538 20.7245 17.0073 19.3311 18.1837C17.9378 19.3601 16.9098 20.9104 16.3685 22.6517C15.8272 24.3931 15.7951 26.2529 16.276 28.012C16.7569 29.771 17.7307 31.3558 19.0826 32.5796C20.4345 33.8034 22.1082 34.6151 23.9062 34.9191V31.6487Z" fill="white"/>
<path d="M46.0434 21.5953L42.3618 24.8306L40.0987 22.5675L43.9396 19.1887L40.1784 12.6862L34.6959 14.535C33.4116 13.466 31.9571 12.6202 30.3928 12.0328L29.2612 6.375H21.7387L20.6071 12.0328C19.0303 12.6038 17.5678 13.4511 16.2881 14.535L10.8215 12.6862L7.06027 19.1887L11.3953 22.9978C11.1004 24.6476 11.1004 26.3365 11.3953 27.9862L7.06027 31.8112L10.8215 38.3138L16.304 36.465C17.5883 37.534 19.0429 38.3798 20.6071 38.9672L21.7387 44.625H23.9062V47.8125H21.7387C21.0017 47.8119 20.2876 47.5559 19.718 47.0881C19.1485 46.6202 18.7587 45.9695 18.615 45.2466L17.8021 41.2303C17.0806 40.8784 16.3831 40.4791 15.7143 40.035L11.8415 41.3419C11.5122 41.449 11.1678 41.5028 10.8215 41.5013C10.2617 41.5051 9.71096 41.3594 9.22625 41.0792C8.74154 40.7991 8.34042 40.3946 8.06434 39.9075L4.30309 33.405C3.93109 32.7659 3.79285 32.0174 3.91206 31.2876C4.03127 30.5578 4.4005 29.8922 4.95652 29.4047L8.01653 26.7272C7.98465 26.3128 7.96871 25.9144 7.96871 25.5C7.96871 25.0856 8.00059 24.6872 8.03246 24.2887L4.95652 21.5953C4.4005 21.1078 4.03127 20.4422 3.91206 19.7124C3.79285 18.9826 3.93109 18.2341 4.30309 17.595L8.06434 11.0925C8.34042 10.6054 8.74154 10.2009 9.22625 9.92076C9.71096 9.64058 10.2617 9.4949 10.8215 9.49875C11.1678 9.49716 11.5122 9.55096 11.8415 9.65812L15.6984 10.965C16.3727 10.5208 17.0754 10.1215 17.8021 9.76969L18.615 5.75344C18.7587 5.03053 19.1485 4.37977 19.718 3.91193C20.2876 3.4441 21.0017 3.18809 21.7387 3.1875H29.2612C29.9983 3.18809 30.7123 3.4441 31.2819 3.91193C31.8514 4.37977 32.2412 5.03053 32.385 5.75344L33.1978 9.76969C33.9193 10.1216 34.6168 10.5209 35.2856 10.965L39.1584 9.65812C39.4877 9.55096 39.8321 9.49716 40.1784 9.49875C40.7382 9.4949 41.289 9.64058 41.7737 9.92076C42.2584 10.2009 42.6595 10.6054 42.9356 11.0925L46.6968 17.595C47.0688 18.2341 47.2071 18.9826 47.0879 19.7124C46.9687 20.4422 46.5994 21.1078 46.0434 21.5953Z" fill="white"/>
</svg>
